<?xml version="1.0" standalone="no"?>
<!DOCTYPE svg PUBLIC "-//W3C//DTD SVG 20010904//EN"
 "http://www.w3.org/TR/2001/REC-SVG-20010904/DTD/svg10.dtd">
<svg version="1.0" xmlns="http://www.w3.org/2000/svg"
 width="120.000000pt" height="44.000000pt" viewBox="0 0 100.000000 71.000000"
 preserveAspectRatio="xMidYMid meet">

<g transform="translate(-46.000000,68.000000) scale(0.01700000,-0.01700000)">
<path style="fill:#2f6df5; stroke:none;" d="M6833 3512 c-98 -39 -178 -124 -205 -216 -20 -67 -15 -174 10 -229
11 -26 186 -295 387 -598 201 -304 376 -570 387 -593 30 -58 30 -155 -1 -215
-12 -23 -185 -287 -383 -585 -199 -297 -371 -563 -384 -590 -33 -71 -39 -140
-20 -217 30 -119 129 -223 236 -249 30 -7 163 -10 390 -8 l345 3 67 32 c116
55 137 83 448 608 302 509 316 539 273 578 -11 9 -33 20 -50 23 -25 5 -36 1
-61 -23 -16 -15 -150 -233 -298 -483 -147 -250 -279 -470 -292 -487 -13 -18
-52 -47 -86 -63 l-62 -31 -320 3 -321 3 -36 25 c-67 46 -97 138 -69 210 6 14
181 282 390 597 240 361 387 591 398 625 25 72 25 204 0 276 -11 33 -163 271
-401 630 -210 318 -386 588 -390 601 -25 79 15 175 88 210 41 20 59 21 348 21
339 0 367 -4 433 -63 25 -23 234 -376 716 -1210 374 -649 692 -1195 707 -1214
38 -49 102 -90 169 -108 79 -20 525 -22 602 -2 93 25 172 99 202 192 20 59 16
153 -7 206 -11 24 -97 161 -192 304 l-173 259 4 51 c4 45 21 75 176 308 94
142 176 274 182 295 15 54 12 142 -6 195 -21 63 -83 130 -152 164 l-57 28
-285 0 -285 0 -55 -26 c-85 -40 -125 -81 -200 -210 -80 -135 -88 -173 -44
-208 60 -47 96 -24 179 115 99 168 77 158 392 162 224 3 267 1 293 -13 40 -21
70 -70 70 -116 0 -38 -42 -108 -239 -403 -51 -76 -102 -157 -112 -180 -23 -50
-25 -166 -5 -224 8 -22 86 -147 174 -279 87 -131 166 -253 176 -270 34 -66 13
-142 -48 -179 -28 -17 -54 -19 -292 -19 l-260 0 -40 26 c-34 23 -119 166 -724
1214 -750 1301 -728 1267 -857 1328 l-68 32 -360 2 c-321 2 -365 1 -402 -15z"/>
<path style="fill:#ffffff; stroke:none;" d="M2767 3333 c-4 -3 -7 -323 -7 -709 l0 -703 21 -12 c15 -8 107 -10
313 -7 264 4 296 6 342 25 80 32 120 68 156 141 l33 67 0 290 c0 329 -4 352
-77 431 -61 66 -121 87 -260 92 -108 4 -121 2 -172 -21 -37 -17 -62 -37 -76
-59 l-20 -33 0 233 c0 142 -4 241 -10 253 -10 17 -22 19 -124 19 -62 0 -116
-3 -119 -7z m547 -617 c50 -21 56 -50 56 -293 0 -233 -6 -264 -56 -283 -14 -6
-86 -10 -160 -10 l-134 0 0 253 c0 235 1 254 20 285 11 18 35 39 53 47 42 19
178 19 221 1z"/>
<path style="fill:#ffffff; stroke:none;" d="M4016 3324 c-3 -8 -6 -62 -6 -119 0 -126 -1 -125 132 -125 131 0 129
-2 126 140 l-3 115 -121 3 c-104 2 -123 0 -128 -14z"/>
<path style="fill:#ffffff; stroke:none;" d="M1557 2943 c-15 -14 -3 -39 123 -267 72 -129 130 -237 130 -239 0 -2
-58 -115 -130 -250 -71 -135 -130 -252 -130 -260 0 -8 7 -18 16 -21 29 -11
228 -6 252 7 18 9 40 51 83 157 77 190 79 194 85 187 3 -3 36 -79 73 -169 52
-124 73 -166 92 -175 14 -8 66 -13 131 -13 110 0 138 5 138 23 0 6 -61 124
-135 262 l-135 252 125 239 c69 131 124 246 123 254 -3 12 -27 16 -129 18
-109 2 -129 0 -146 -15 -12 -10 -45 -88 -78 -181 -32 -90 -61 -160 -65 -155
-3 4 -35 78 -69 163 -35 85 -72 163 -83 173 -17 14 -40 17 -142 17 -68 0 -126
-3 -129 -7z"/>
<path style="fill:#ffffff; stroke:none;" d="M4022 2938 c-9 -9 -12 -136 -12 -509 0 -439 2 -499 16 -513 12 -12
37 -16 110 -16 53 0 104 5 115 10 18 10 19 27 19 513 0 378 -3 506 -12 515 -8
8 -49 12 -118 12 -69 0 -110 -4 -118 -12z"/>
<path style="fill:#ffffff; stroke:none;" d="M4662 2938 c-9 -9 -12 -137 -12 -515 0 -486 1 -503 19 -513 11 -5 62
-10 115 -10 73 0 98 4 110 16 14 13 16 60 16 360 0 374 1 380 56 423 23 18 41
21 119 21 76 0 97 -3 116 -19 l24 -19 5 -377 c6 -443 -7 -405 135 -405 141 0
129 -35 135 387 5 386 6 390 60 418 40 21 178 21 207 0 38 -27 43 -74 43 -437
0 -343 0 -347 21 -359 32 -17 217 -8 230 11 6 9 8 159 6 400 -3 336 -5 392
-21 438 -22 68 -81 133 -149 163 -45 21 -68 24 -172 24 -140 0 -190 -17 -244
-81 l-33 -39 -47 46 c-63 61 -143 84 -263 77 -97 -6 -165 -34 -203 -82 l-25
-31 0 46 c0 25 -5 50 -12 57 -8 8 -49 12 -118 12 -69 0 -110 -4 -118 -12z"/>
<path style="fill:#2f6df5; stroke:none;" d="M3315 1648 c-3 -7 -4 -341 -3 -743 l3 -730 50 -3 c38 -3 52 1 62 14
17 23 19 1424 3 1455 -8 15 -22 19 -61 19 -30 0 -51 -5 -54 -12z"/>
<path style="fill:#2f6df5; stroke:none;" d="M3905 1638 c-3 -13 -4 -347 -3 -743 l3 -720 60 0 60 0 0 740 0 740
-57 3 c-53 3 -58 1 -63 -20z"/>
<path style="fill:#2f6df5; stroke:none;" d="M4992 1648 c-8 -8 -12 -52 -12 -134 0 -135 -1 -134 69 -134 20 0 42
5 49 12 8 8 12 51 12 128 0 77 -4 120 -12 128 -7 7 -30 12 -53 12 -23 0 -46
-5 -53 -12z"/>
<path style="fill:#2f6df5; stroke:none;" d="M277 1464 c-4 -4 -7 -52 -7 -106 l0 -98 -74 0 c-87 0 -99 -9 -94 -72
l3 -43 83 -3 82 -3 0 -363 c0 -406 3 -431 66 -504 20 -24 59 -55 88 -70 47
-24 61 -26 166 -27 l115 0 0 55 0 55 -95 5 c-108 6 -148 23 -183 80 -21 34
-22 45 -25 402 l-3 367 143 3 143 3 3 49 c2 32 -1 52 -10 57 -7 5 -72 9 -145
9 l-132 0 -3 103 -3 102 -55 3 c-31 2 -59 0 -63 -4z"/>
<path style="fill:#2f6df5; stroke:none;" d="M5647 1464 c-4 -4 -7 -52 -7 -106 l0 -98 -74 0 c-87 0 -99 -9 -94
-72 l3 -43 82 -3 82 -3 3 -382 3 -382 30 -55 c59 -106 156 -153 311 -148 l89
3 0 55 0 55 -90 6 c-49 3 -102 11 -116 16 -32 14 -77 66 -87 101 -4 15 -7 185
-7 377 l0 350 140 5 140 5 0 55 0 55 -142 3 -142 3 -3 102 -3 102 -55 3 c-31
2 -59 0 -63 -4z"/>
<path style="fill:#2f6df5; stroke:none;" d="M1198 1246 c-93 -25 -177 -110 -195 -195 -5 -20 -8 -178 -8 -351 0
-311 0 -316 24 -368 30 -67 98 -127 164 -147 36 -11 97 -15 208 -15 134 0 166
3 212 20 62 23 117 72 150 133 21 41 22 52 25 370 3 281 1 336 -13 377 -22 66
-82 132 -147 161 -47 21 -70 23 -213 26 -110 2 -175 -1 -207 -11z m372 -131
c21 -12 44 -39 58 -65 22 -44 23 -49 20 -352 -3 -292 -4 -308 -24 -334 -47
-64 -62 -69 -222 -72 -137 -3 -150 -1 -191 20 -31 16 -51 36 -65 63 -20 38
-21 57 -21 340 0 260 2 304 16 330 43 78 94 96 264 93 109 -3 136 -6 165 -23z"/>
<path style="fill:#2f6df5; stroke:none;" d="M2320 1247 c-88 -25 -149 -78 -188 -165 -15 -32 -17 -78 -17 -367 0
-327 0 -331 24 -383 30 -67 98 -127 164 -147 36 -11 97 -15 208 -15 134 0 166
3 212 20 62 23 117 72 150 133 21 41 22 52 25 370 3 281 1 336 -13 377 -22 66
-82 132 -147 161 -47 21 -70 23 -213 26 -107 2 -175 -2 -205 -10z m370 -132
c21 -12 44 -39 58 -65 22 -44 23 -49 20 -352 -3 -292 -4 -308 -24 -334 -47
-64 -62 -69 -222 -72 -137 -3 -150 -1 -191 20 -31 16 -51 36 -65 63 -20 38
-21 57 -21 340 0 260 2 304 16 330 43 78 94 96 264 93 109 -3 136 -6 165 -23z"/>
<path style="fill:#2f6df5; stroke:none;" d="M4478 1248 c-23 -18 -331 -488 -335 -513 -3 -13 57 -109 176 -284 99
-145 186 -268 193 -272 23 -15 128 -11 134 5 3 8 -73 127 -171 271 -97 141
-178 262 -181 269 -3 7 66 121 152 252 87 131 158 248 158 259 1 17 -6 20 -54
23 -34 2 -61 -2 -72 -10z"/>
<path style="fill:#2f6df5; stroke:none;" d="M4991 1246 c-8 -9 -10 -160 -9 -542 l3 -529 60 0 60 0 3 529 c1 382
-1 533 -9 542 -6 8 -30 14 -54 14 -24 0 -48 -6 -54 -14z"/>
</g>
</svg>
